<svg width="462" height="715" viewBox="0 0 462 715" fill="none" xmlns="http://www.w3.org/2000/svg">
<path d="M309.156 511.847C308.068 518.544 316.19 522.722 321.011 517.944L447.183 392.923C466.906 373.38 466.944 341.529 447.267 321.939L126.036 2.11892C120.117 -3.77393 110.7 3.76367 115.162 10.823L324.111 341.444C330.638 351.772 333.16 364.129 331.2 376.187L309.156 511.847Z" fill="white"/>
<path d="M152.844 203.153C153.932 196.456 145.81 192.278 140.989 197.056L14.8171 322.077C-4.90598 341.62 -4.94385 373.471 14.7327 393.061L335.964 712.881C341.883 718.774 351.3 711.236 346.838 704.177L137.889 373.556C131.362 363.228 128.84 350.871 130.8 338.813L152.844 203.153Z" fill="white"/>
<path d="M294 357.5C294 392.018 266.018 420 231.5 420C196.982 420 169 392.018 169 357.5C169 322.982 196.982 295 231.5 295C266.018 295 294 322.982 294 357.5Z" fill="white"/>
</svg>
