<svg height="100" viewBox="0 0 90 56" fill="none" xmlns="http://www.w3.org/2000/svg">
    <path
        d="M46.3774 54.9018L48.5164 48.7378H49.4755L51.6145 54.9018H50.7063L50.197 53.384H47.7694L47.2601 54.9018H46.3689H46.3774ZM48.0071 52.6757H49.9763L49.0172 49.7075H48.9832L48.0156 52.6757H48.0071Z"
        class="letter" fill="black"></path>
    <path d="M52.6501 54.9018V48.7378H53.5159V54.9018H52.6501Z" class="letter" fill="black"></path>
    <path
        d="M57.344 48.7378H58.2692L59.8055 53.8899H59.8395L61.3758 48.7378H62.301L60.2979 54.9018H59.3387L57.344 48.7378Z"
        class="letter" fill="black"></path>
    <path
        d="M63.3025 49.598V48.7463H64.1513V49.598H63.3025ZM63.3195 54.9019V50.281H64.1343V54.9019H63.3195Z"
        class="letter" fill="black"></path>
    <path
        d="M65.2632 53.443H66.0781C66.0865 53.7465 66.1968 53.9826 66.409 54.1344C66.6212 54.2862 66.8674 54.3621 67.1475 54.3621C67.4276 54.3621 67.6568 54.3031 67.8605 54.1766C68.0642 54.0585 68.1661 53.8814 68.1661 53.6538C68.1661 53.4683 68.1067 53.3165 67.9879 53.2069C67.869 53.0972 67.6483 53.0129 67.3428 52.9539L66.5788 52.8021C66.1969 52.7262 65.8998 52.5744 65.6961 52.3636C65.4924 52.1528 65.3905 51.8577 65.3905 51.4951C65.3905 51.318 65.4329 51.141 65.5093 50.9807C65.5942 50.8205 65.7046 50.6772 65.8574 50.5591C66.0101 50.4411 66.1884 50.3483 66.3921 50.2809C66.5958 50.2134 66.825 50.1797 67.0796 50.1797C67.3003 50.1797 67.5125 50.205 67.7162 50.264C67.9199 50.323 68.1067 50.4074 68.2764 50.5338C68.4377 50.6519 68.5735 50.8121 68.6669 50.9976C68.7687 51.1831 68.8197 51.4108 68.8282 51.6638H68.0133C68.0048 51.3602 67.903 51.141 67.7247 51.0145C67.5465 50.888 67.3343 50.829 67.0881 50.829C66.842 50.829 66.6213 50.888 66.443 51.0145C66.2648 51.1325 66.1799 51.2927 66.1799 51.4951C66.1799 51.6806 66.2308 51.8155 66.3327 51.9167C66.4345 52.0179 66.6043 52.0938 66.8334 52.136L67.6144 52.2962C68.0727 52.3889 68.4207 52.5491 68.6414 52.76C68.8621 52.9708 68.9809 53.2659 68.9809 53.6369C68.9809 53.8309 68.9385 54.0164 68.8536 54.1766C68.7687 54.3452 68.6414 54.4886 68.4801 54.6066C68.3189 54.7247 68.1236 54.8259 67.8945 54.8933C67.6738 54.9692 67.4191 55.0029 67.1475 55.0029C66.8759 55.0029 66.6467 54.9692 66.4175 54.9017C66.1884 54.8343 65.9931 54.7331 65.8234 54.6066C65.6536 54.4717 65.5178 54.3115 65.4245 54.1175C65.3311 53.9236 65.2717 53.6959 65.2717 53.4345L65.2632 53.443Z"
        class="letter" fill="black"></path>
    <path
        d="M70.0759 49.598V48.7463H70.9247V49.598H70.0759ZM70.1014 54.9019V50.281H70.9162V54.9019H70.1014Z"
        class="letter" fill="black"></path>
    <path
        d="M72.0876 52.5913C72.0876 52.2372 72.1301 51.9168 72.215 51.6132C72.2999 51.3096 72.4272 51.0567 72.6055 50.8459C72.7752 50.6351 72.9959 50.4664 73.259 50.3484C73.5221 50.2303 73.8277 50.1628 74.1757 50.1628C74.5237 50.1628 74.8293 50.2219 75.0924 50.3484C75.3556 50.4664 75.5678 50.6351 75.7375 50.8459C75.9073 51.0567 76.0346 51.3096 76.1195 51.6132C76.2043 51.9168 76.2468 52.2372 76.2468 52.5913C76.2468 52.9455 76.2043 53.2743 76.1195 53.5695C76.0346 53.8646 75.9073 54.1176 75.7375 54.3284C75.5678 54.5392 75.3471 54.7078 75.0924 54.8259C74.8378 54.9439 74.5237 55.0114 74.1757 55.0114C73.8277 55.0114 73.5136 54.9524 73.259 54.8259C72.9959 54.7078 72.7837 54.5392 72.6055 54.3284C72.4357 54.1176 72.2999 53.8646 72.215 53.5695C72.1301 53.2743 72.0876 52.9455 72.0876 52.5913ZM72.9534 53.3081C72.9534 53.4683 72.9874 53.6032 73.0553 53.7381C73.1232 53.873 73.2081 53.9742 73.3184 54.067C73.4288 54.1597 73.5561 54.2272 73.7004 54.2778C73.8447 54.3284 74.006 54.3537 74.1672 54.3537C74.3285 54.3537 74.4813 54.3284 74.6341 54.2778C74.7783 54.2272 74.9142 54.1513 75.016 54.067C75.1264 53.9742 75.2112 53.8646 75.2792 53.7381C75.3471 53.6116 75.381 53.4683 75.381 53.3081V51.8746C75.381 51.7144 75.3471 51.5795 75.2792 51.4445C75.2112 51.3181 75.1264 51.2084 75.016 51.1157C74.9057 51.0229 74.7783 50.9555 74.6341 50.9049C74.4898 50.8543 74.3285 50.829 74.1672 50.829C74.006 50.829 73.8532 50.8543 73.7004 50.9049C73.5476 50.9555 73.4203 51.0314 73.3099 51.1157C73.1996 51.2084 73.1147 51.3181 73.0468 51.4445C72.9789 51.571 72.9449 51.7144 72.9449 51.8746V53.3081H72.9534Z"
        class="letter" fill="black"></path>
    <path
        d="M77.4265 54.9018V50.2809H78.2413V51.0398C78.3687 50.77 78.5469 50.5592 78.7676 50.3989C78.9883 50.2387 79.2769 50.1628 79.6249 50.1628C79.8456 50.1628 80.0493 50.1966 80.236 50.2556C80.4228 50.3146 80.5756 50.4158 80.7114 50.5423C80.8472 50.6772 80.949 50.8459 81.0169 51.0567C81.0848 51.2675 81.1273 51.5204 81.1273 51.8156V54.8933H80.3124V51.8999C80.3124 51.5626 80.2445 51.2928 80.1172 51.0988C79.9899 50.9049 79.7438 50.8121 79.3957 50.8121C79.226 50.8121 79.0732 50.8459 78.9374 50.9133C78.8015 50.9808 78.6742 51.0735 78.5724 51.2C78.4705 51.3265 78.3857 51.4698 78.3347 51.6385C78.2753 51.8071 78.2498 51.9926 78.2498 52.195V54.8933H77.435L77.4265 54.9018Z"
        class="letter" fill="black"></path>
    <mask id="mask0_102_2135" style="mask-type:luminance" maskUnits="userSpaceOnUse" x="0" y="0"
        width="90" height="42">
        <path
            d="M39.7906 0.142838C39.4426 0.142838 39.1285 0.294622 38.9333 0.547589L17.204 28.745L9.63264 38.5686L8.99603 39.395C8.73291 39.7323 8.18119 39.5467 8.18119 39.1167V0.716231C8.18119 0.454832 7.96899 0.235593 7.69737 0.235593H1.08522C0.822088 0.235593 0.609863 0.4464 0.609863 0.716231V40.8453C0.609863 41.3597 1.07671 41.7813 1.6539 41.7813H15.8204C16.1599 41.7813 16.4825 41.6295 16.6777 41.3765L48.4823 0.125977H39.7821L39.7906 0.142838ZM60.5014 0.134407H60.4844L52.7688 0.142838C52.4293 0.142838 52.1067 0.294622 51.9115 0.547589L47.1073 6.77902L21.2018 40.4068C20.7265 41.0224 21.2188 41.8656 22.0591 41.8656H28.4846C28.9174 41.8656 29.3249 41.6632 29.588 41.326L61.3502 0.125977H60.5014V0.134407ZM65.6791 0.134407C65.2886 0.134407 64.9236 0.319915 64.6945 0.623476L60.3061 6.39114C60.1873 6.55978 60.3062 6.78745 60.5014 6.78745H84.8875C85.9569 6.78745 86.3304 8.06915 85.3967 8.53293L46.8526 27.9355C46.5216 28.1042 46.3264 28.4077 46.3264 28.7535V40.9465C46.3264 41.4609 46.7932 41.8825 47.3704 41.8825H88.5713C88.8684 41.8825 89.1145 41.6379 89.1145 41.3428V35.7775C89.1145 35.4824 88.8684 35.2379 88.5713 35.2379H50.5534C49.4754 35.2379 49.102 33.9562 50.0441 33.484L88.5967 14.0982C88.9193 13.9296 89.1315 13.6176 89.1315 13.2803V1.07882C89.1315 0.564451 88.6646 0.142838 88.0875 0.142838H65.6961L65.6791 0.134407Z"
            fill="white"></path>
    </mask>
    <g mask="url(#mask0_102_2135)">
        <mask id="mask1_102_2135" style="mask-type:luminance" maskUnits="userSpaceOnUse" x="-21"
            y="-44" width="132" height="130">
            <path d="M-20.313 21.0042L44.8665 -44L110.038 21.0042L44.8665 86L-20.313 21.0042Z"
                fill="white"></path>
        </mask>
        <g mask="url(#mask1_102_2135)">
            <path d="M-20.313 20.3381L45.5286 86.0001H-20.313V20.3381Z" fill="#26CB81"></path>
            <path d="M-20.313 19.866L46.0039 86.0001H45.5286L-20.313 20.3382V19.866Z" fill="#26CB81"></path>
            <path d="M-20.313 19.3936L46.4793 85.9999H46.0039L-20.313 19.8658V19.3936Z"
                fill="#26CA81"></path>
            <path d="M-20.313 18.9214L46.9461 85.9999H46.4793L-20.313 19.3936V18.9214Z"
                fill="#26C880"></path>
            <path d="M-20.313 18.4578L47.4214 86.0001H46.9461L-20.313 18.9215V18.4578Z"
                fill="#26C780"></path>
            <path d="M-20.313 17.9854L47.8883 85.9999H47.4214L-20.313 18.4576V17.9854Z"
                fill="#25C580"></path>
            <path d="M-20.313 17.5132L48.3636 85.9999H47.8883L-20.313 17.9854V17.5132Z"
                fill="#25C480"></path>
            <path d="M-20.313 17.041L48.8305 86H48.3636L-20.313 17.5132V17.041Z" fill="#25C280"></path>
            <path d="M-20.313 16.5688L49.3058 86H48.8305L-20.313 17.0411V16.5688Z" fill="#25C180"></path>
            <path d="M-20.313 16.105L49.7726 85.9999H49.3058L-20.313 16.5688V16.105Z" fill="#25BF80"></path>
            <path d="M-20.313 15.6328L50.248 85.9999H49.7726L-20.313 16.105V15.6328Z" fill="#25BE80"></path>
            <path d="M-20.313 15.1606L50.7233 86H50.248L-20.313 15.6328V15.1606Z" fill="#25BC80"></path>
            <path d="M-20.313 14.6885L51.1901 86H50.7233L-20.313 15.1607V14.6885Z" fill="#24BB80"></path>
            <path d="M-20.313 14.2246L51.6654 85.9999H51.1901L-20.313 14.6884V14.2246Z"
                fill="#24BA80"></path>
            <path d="M-20.313 13.7524L52.1323 86H51.6654L-20.313 14.2247V13.7524Z" fill="#24B880"></path>
            <path d="M-20.313 13.2803L52.6077 86H52.1323L-20.313 13.7525V13.2803Z" fill="#24B780"></path>
            <path d="M-20.313 12.8081L53.0745 86H52.6077L-20.313 13.2803V12.8081Z" fill="#24B580"></path>
            <path d="M-20.313 12.3442L53.5498 85.9999H53.0745L-20.313 12.808V12.3442Z"
                fill="#24B480"></path>
            <path d="M-20.313 11.8721L54.0166 86H53.5498L-20.313 12.3443V11.8721Z" fill="#24B380"></path>
            <path d="M-20.313 11.3999L54.492 86H54.0166L-20.313 11.8721V11.3999Z" fill="#24B180"></path>
            <path d="M-20.313 10.9277L54.9588 86.0001H54.492L-20.313 11.3999V10.9277Z"
                fill="#23B080"></path>
            <path d="M-20.313 10.4556L55.4341 86.0001H54.9588L-20.313 10.9278V10.4556Z"
                fill="#23AE7F"></path>
            <path d="M-20.313 9.9917L55.9094 86H55.4341L-20.313 10.4555V9.9917Z" fill="#23AD7F"></path>
            <path d="M-20.313 9.51953L56.3763 86H55.9094L-20.313 9.99174V9.51953Z" fill="#23AC7E"></path>
            <path d="M-20.313 9.04736L56.8517 86.0001H56.3763L-20.313 9.51957V9.04736Z"
                fill="#23AA7E"></path>
            <path d="M-20.313 8.5752L57.3185 86.0001H56.8517L-20.313 9.0474V8.5752Z" fill="#23A97E"></path>
            <path d="M-20.313 8.11133L57.7938 86H57.3185L-20.313 8.5751V8.11133Z" fill="#23A87D"></path>
            <path d="M-20.313 7.63916L58.2607 86.0001H57.7938L-20.313 8.11136V7.63916Z"
                fill="#23A67D"></path>
            <path d="M-20.313 7.16699L58.736 86.0001H58.2607L-20.313 7.6392V7.16699Z" fill="#22A57C"></path>
            <path d="M-20.313 6.69458L59.2028 85.9999H58.736L-20.313 7.16679V6.69458Z"
                fill="#22A47C"></path>
            <path d="M-20.313 6.22241L59.6781 85.9999H59.2028L-20.313 6.69462V6.22241Z"
                fill="#22A27B"></path>
            <path d="M-20.313 5.75879L60.1535 86.0001H59.6781L-20.313 6.22257V5.75879Z"
                fill="#22A17B"></path>
            <path d="M-20.313 5.28662L60.6203 86.0001H60.1535L-20.313 5.75883V5.28662Z"
                fill="#22A07B"></path>
            <path d="M-20.313 4.81421L61.0957 85.9999H60.6203L-20.313 5.28642V4.81421Z"
                fill="#229E7A"></path>
            <path d="M-20.313 4.34204L61.5625 86H61.0957L-20.313 4.81424V4.34204Z" fill="#229D7A"></path>
            <path d="M-20.313 3.87842L62.0378 86.0001H61.5625L-20.313 4.34219V3.87842Z"
                fill="#229C79"></path>
            <path d="M-20.313 3.40601L62.5047 85.9999H62.0378L-20.313 3.87821V3.40601Z"
                fill="#219A79"></path>
            <path d="M-20.313 2.93384L62.98 85.9999H62.5047L-20.313 3.40605V2.93384Z" fill="#219979"></path>
            <path d="M-20.313 2.46167L63.4468 86H62.98L-20.313 2.93388V2.46167Z" fill="#219878"></path>
            <path d="M-20.313 1.99805L63.9221 86.0001H63.4468L-20.313 2.46182V1.99805Z"
                fill="#219778"></path>
            <path d="M-20.313 1.52563L64.3975 85.9999H63.9221L-20.313 1.99784V1.52563Z"
                fill="#219578"></path>
            <path d="M-20.313 1.05347L64.8644 86H64.3975L-20.313 1.52567V1.05347Z" fill="#219477"></path>
            <path d="M-20.313 0.581299L65.3397 86H64.8644L-20.313 1.05351V0.581299Z" fill="#219377"></path>
            <path d="M-20.313 0.109131L65.8065 86H65.3397L-20.313 0.581335V0.109131Z" fill="#219176"></path>
            <path d="M-20.313 -0.354736L66.2818 85.9999H65.8065L-20.313 0.10904V-0.354736Z"
                fill="#209076"></path>
            <path d="M-20.313 -0.826904L66.7487 86H66.2818L-20.313 -0.3547V-0.826904Z"
                fill="#208F76"></path>
            <path d="M-20.313 -1.29907L67.224 86H66.7487L-20.313 -0.826865V-1.29907Z" fill="#208E75"></path>
            <path d="M-20.313 -1.77124L67.6908 86H67.224L-20.313 -1.29904V-1.77124Z" fill="#208D75"></path>
            <path d="M-20.313 -2.23511L68.1662 86H67.6908L-20.313 -1.77133V-2.23511Z" fill="#208B74"></path>
            <path d="M-20.313 -2.70728L68.6415 86H68.1662L-20.313 -2.23507V-2.70728Z" fill="#208A74"></path>
            <path d="M-20.313 -3.17944L69.1084 86H68.6415L-20.313 -2.70724V-3.17944Z" fill="#208974"></path>
            <path d="M-20.313 -3.65161L69.5837 86.0001H69.1084L-20.313 -3.1794V-3.65161Z"
                fill="#208873"></path>
            <path d="M-20.313 -4.11548L70.0505 86H69.5837L-20.313 -3.65171V-4.11548Z" fill="#208773"></path>
            <path d="M-20.313 -4.58765L70.5259 86H70.0505L-20.313 -4.11544V-4.58765Z" fill="#1F8573"></path>
            <path d="M-20.313 -5.05981L70.9927 86.0001H70.5259L-20.313 -4.58761V-5.05981Z"
                fill="#1F8472"></path>
            <path d="M-20.313 -5.53198L71.468 86.0001H70.9927L-20.313 -5.05978V-5.53198Z"
                fill="#1F8372"></path>
            <path d="M-20.313 -6.00439L71.9348 85.9999H71.468L-20.313 -5.53219V-6.00439Z"
                fill="#1F8272"></path>
            <path d="M-20.313 -6.46802L72.4102 86H71.9348L-20.313 -6.00424V-6.46802Z" fill="#1F8171"></path>
            <path d="M-20.313 -6.94019L72.877 86.0001H72.4102L-20.313 -6.46798V-6.94019Z"
                fill="#1F8071"></path>
            <path d="M-20.313 -7.41235L73.3524 86.0001H72.877L-20.313 -6.94015V-7.41235Z"
                fill="#1F8071"></path>
            <path d="M-20.313 -7.88477L73.8277 85.9999H73.3524L-20.313 -7.41256V-7.88477Z"
                fill="#1F8070"></path>
            <path d="M-20.313 -8.34839L74.2945 86.0001H73.8277L-20.313 -7.88461V-8.34839Z"
                fill="#1F8070"></path>
            <path d="M-20.313 -8.82056L74.7699 86.0001H74.2945L-20.313 -8.34835V-8.82056Z"
                fill="#1E806F"></path>
            <path d="M-20.313 -9.29297L75.2367 85.9999H74.7699L-20.313 -8.82076V-9.29297Z"
                fill="#1E806F"></path>
            <path d="M-20.313 -9.76514L75.712 85.9999H75.2367L-20.313 -9.29293V-9.76514Z"
                fill="#1E806F"></path>
            <path d="M-20.313 -10.2288L76.1789 86.0001H75.712L-20.313 -9.76499V-10.2288Z"
                fill="#1E7F6E"></path>
            <path d="M-20.313 -10.7009L76.6542 86.0001H76.1789L-20.313 -10.2287V-10.7009Z"
                fill="#1E7E6E"></path>
            <path d="M-20.313 -11.1733L77.121 85.9999H76.6542L-20.313 -10.7011V-11.1733Z"
                fill="#1E7C6E"></path>
            <path d="M-20.313 -11.6455L77.5964 86H77.121L-20.313 -11.1733V-11.6455Z" fill="#1E7B6D"></path>
            <path d="M-20.313 -12.1177L78.0717 86H77.5964L-20.313 -11.6455V-12.1177Z" fill="#1E7A6D"></path>
            <path d="M-20.313 -12.5815L78.5386 85.9999H78.0717L-20.313 -12.1178V-12.5815Z"
                fill="#1E796D"></path>
            <path d="M-20.313 -13.0537L79.0139 85.9999H78.5386L-20.313 -12.5815V-13.0537Z"
                fill="#1D786C"></path>
            <path d="M-20.313 -13.5259L79.4807 86H79.0139L-20.313 -13.0537V-13.5259Z" fill="#1D776C"></path>
            <path d="M-20.313 -13.998L79.956 86H79.4807L-20.313 -13.5258V-13.998Z" fill="#1D766C"></path>
            <path d="M-20.313 -14.4619L80.4229 85.9999H79.956L-20.313 -13.9981V-14.4619Z"
                fill="#1D756C"></path>
            <path d="M-20.313 -14.9341L80.8982 85.9999H80.4229L-20.313 -14.4619V-14.9341Z"
                fill="#1D746B"></path>
            <path d="M-20.313 -15.4062L81.365 86H80.8982L-20.313 -14.934V-15.4062Z" fill="#1D736B"></path>
            <path d="M-20.313 -15.8784L81.8404 86H81.365L-20.313 -15.4062V-15.8784Z" fill="#1D726B"></path>
            <path d="M-20.313 -16.3506L82.3157 86.0001H81.8404L-20.313 -15.8784V-16.3506Z"
                fill="#1D716A"></path>
            <path d="M-20.313 -16.8145L82.7826 86H82.3157L-20.313 -16.3507V-16.8145Z" fill="#1D706A"></path>
            <path d="M-20.313 -17.2866L83.2579 86H82.7826L-20.313 -16.8144V-17.2866Z" fill="#1D6F6A"></path>
            <path d="M-20.313 -17.7588L83.7247 86H83.2579L-20.313 -17.2866V-17.7588Z" fill="#1D6E69"></path>
            <path d="M-20.313 -18.231L84.2001 86.0001H83.7247L-20.313 -17.7587V-18.231Z"
                fill="#1C6D69"></path>
            <path d="M-20.313 -18.6948L84.6669 86H84.2001L-20.313 -18.2311V-18.6948Z" fill="#1C6C69"></path>
            <path d="M-20.313 -19.167L85.1422 86H84.6669L-20.313 -18.6948V-19.167Z" fill="#1C6B68"></path>
            <path d="M-20.313 -19.6392L85.609 86.0001H85.1422L-20.313 -19.167V-19.6392Z"
                fill="#1C6A68"></path>
            <path d="M-20.313 -20.1113L86.0844 86.0001H85.609L-20.313 -19.6391V-20.1113Z"
                fill="#1C6968"></path>
            <path d="M-20.313 -20.5752L86.5597 86H86.0844L-20.313 -20.1114V-20.5752Z" fill="#1C6868"></path>
            <path d="M-20.313 -21.0474L87.0266 86.0001H86.5597L-20.313 -20.5752V-21.0474Z"
                fill="#1C6767"></path>
            <path d="M-20.313 -21.5195L87.5019 86.0001H87.0266L-20.313 -21.0473V-21.5195Z"
                fill="#1C6667"></path>
            <path d="M-20.313 -21.9919L87.9687 85.9999H87.5019L-20.313 -21.5197V-21.9919Z"
                fill="#1C6667"></path>
            <path d="M-20.313 -22.4641L88.4441 85.9999H87.9687L-20.313 -21.9919V-22.4641Z"
                fill="#1C6566"></path>
            <path d="M-20.313 -22.9277L88.9109 86.0001H88.4441L-20.313 -22.464V-22.9277Z"
                fill="#1C6466"></path>
            <path d="M-20.313 -23.3999L89.3862 86.0001H88.9109L-20.313 -22.9277V-23.3999Z"
                fill="#1B6366"></path>
            <path d="M-20.313 -23.8723L89.8531 85.9999H89.3862L-20.313 -23.4001V-23.8723Z"
                fill="#1B6266"></path>
            <path d="M-20.313 -24.3445L90.3284 85.9999H89.8531L-20.313 -23.8723V-24.3445Z"
                fill="#1B6165"></path>
            <path d="M-20.313 -24.8081L90.8037 86.0001H90.3284L-20.313 -24.3443V-24.8081Z"
                fill="#1B6065"></path>
            <path d="M-20.313 -25.2805L91.2706 85.9999H90.8038L-20.313 -24.8083V-25.2805Z"
                fill="#1B6065"></path>
            <path d="M-20.313 -25.7527L91.7459 85.9999H91.2706L-20.313 -25.2805V-25.7527Z"
                fill="#1B5F65"></path>
            <path d="M-20.313 -26.2249L92.2127 86H91.7459L-20.313 -25.7526V-26.2249Z" fill="#1B5E64"></path>
            <path d="M-20.313 -26.6885L92.6881 86.0001H92.2127L-20.313 -26.2247V-26.6885Z"
                fill="#1B5D64"></path>
            <path d="M-20.313 -27.1609L93.1549 85.9999H92.6881L-20.313 -26.6887V-27.1609Z"
                fill="#1B5C64"></path>
            <path d="M-20.313 -27.6331L93.6302 85.9999H93.1549L-20.313 -27.1609V-27.6331Z"
                fill="#1B5C64"></path>
            <path d="M-20.313 -28.1052L94.0971 86H93.6302L-20.313 -27.633V-28.1052Z" fill="#1B5B63"></path>
            <path d="M-20.313 -28.5774L94.5724 86H94.0971L-20.313 -28.1052V-28.5774Z" fill="#1B5A63"></path>
            <path d="M-20.313 -29.0413L95.0393 85.9999H94.5725L-20.313 -28.5775V-29.0413Z"
                fill="#1B5963"></path>
            <path d="M-20.313 -29.5134L95.5146 86H95.0393L-20.313 -29.0412V-29.5134Z" fill="#1A5863"></path>
            <path d="M-20.313 -29.9856L95.9899 86H95.5146L-20.313 -29.5134V-29.9856Z" fill="#1A5863"></path>
            <path d="M-20.313 -30.4578L96.4567 86.0001H95.9899L-20.313 -29.9856V-30.4578Z"
                fill="#1A5762"></path>
            <path
                d="M-20.313 -30.7361L-20.2111 -30.8289L96.8302 85.9072L96.7369 86H96.4568L-20.313 -30.4578V-30.7361Z"
                fill="#1A5662"></path>
            <path
                d="M96.8302 85.9072L97.0678 85.6711L-19.982 -31.0649L-20.2112 -30.8288L96.8302 85.9072Z"
                fill="#1A5662"></path>
            <path
                d="M97.0679 85.6711L97.3056 85.435L-19.7443 -31.301L-19.9819 -31.0649L97.0679 85.6711Z"
                fill="#1A5562"></path>
            <path
                d="M97.3055 85.4351L97.5431 85.199L-19.5067 -31.5371L-19.7444 -31.301L97.3055 85.4351Z"
                fill="#1A5461"></path>
            <path
                d="M97.5433 85.199L97.7724 84.9629L-19.2689 -31.7732L-19.5066 -31.5371L97.5433 85.199Z"
                fill="#1A5461"></path>
            <path
                d="M97.7723 84.9628L98.01 84.7267L-19.0399 -32.001L-19.269 -31.7733L97.7723 84.9628Z"
                fill="#1A5361"></path>
            <path
                d="M98.0101 84.7267L98.2477 84.499L-18.8021 -32.2371L-19.0398 -32.001L98.0101 84.7267Z"
                fill="#1A5261"></path>
            <path
                d="M98.2478 84.499L98.4855 84.2629L-18.5643 -32.4731L-18.802 -32.237L98.2478 84.499Z"
                fill="#1A5261"></path>
            <path
                d="M98.4854 84.2629L98.7231 84.0268L-18.3268 -32.7092L-18.5645 -32.4731L98.4854 84.2629Z"
                fill="#1A5160"></path>
            <path
                d="M98.7229 84.0269L98.9521 83.7907L-18.0892 -32.9453L-18.3269 -32.7092L98.7229 84.0269Z"
                fill="#1A5160"></path>
            <path
                d="M98.9523 83.7908L99.1899 83.5547L-17.8599 -33.1814L-18.0891 -32.9453L98.9523 83.7908Z"
                fill="#1A5060"></path>
            <path
                d="M99.19 83.5547L99.4276 83.3186L-17.6222 -33.4175L-17.8599 -33.1814L99.19 83.5547Z"
                fill="#1A4F60"></path>
            <path
                d="M99.4275 83.3186L99.6652 83.0825L-17.3847 -33.6536L-17.6223 -33.4175L99.4275 83.3186Z"
                fill="#1A4F60"></path>
            <path
                d="M99.6654 83.0825L99.8945 82.8464L-17.1469 -33.8896L-17.3845 -33.6535L99.6654 83.0825Z"
                fill="#1A4E60"></path>
            <path
                d="M99.8944 82.8463L100.132 82.6102L-16.9178 -34.1174L-17.147 -33.8898L99.8944 82.8463Z"
                fill="#194E5F"></path>
            <path
                d="M100.132 82.6102L100.37 82.3826L-16.6801 -34.3535L-16.9177 -34.1174L100.132 82.6102Z"
                fill="#194D5F"></path>
            <path
                d="M100.37 82.3826L100.607 82.1465L-16.4425 -34.5896L-16.6802 -34.3535L100.37 82.3826Z"
                fill="#194D5F"></path>
            <path
                d="M100.607 82.1465L100.845 81.9104L-16.2047 -34.8257L-16.4424 -34.5896L100.607 82.1465Z"
                fill="#194C5F"></path>
            <path
                d="M100.845 81.9104L101.074 81.6743L-15.9672 -35.0618L-16.2048 -34.8257L100.845 81.9104Z"
                fill="#194C5F"></path>
            <path
                d="M101.074 81.6743L101.312 81.4382L-15.7378 -35.2979L-15.967 -35.0617L101.074 81.6743Z"
                fill="#194B5F"></path>
            <path
                d="M101.312 81.4382L101.549 81.2021L-15.5004 -35.5339L-15.738 -35.2978L101.312 81.4382Z"
                fill="#194B5F"></path>
            <path
                d="M101.55 81.2021L101.787 80.966L-15.2626 -35.77L-15.5002 -35.5339L101.55 81.2021Z"
                fill="#194B5F"></path>
            <path
                d="M101.787 80.9658L102.016 80.7297L-15.025 -36.0063L-15.2627 -35.7702L101.787 80.9658Z"
                fill="#194A5E"></path>
            <path
                d="M102.016 80.7298L102.254 80.4937L-14.7957 -36.2339L-15.0249 -36.0062L102.016 80.7298Z"
                fill="#194A5E"></path>
            <path
                d="M102.254 80.4938L102.492 80.2661L-14.558 -36.47L-14.7957 -36.2339L102.254 80.4938Z"
                fill="#194A5E"></path>
            <path
                d="M102.492 80.2661L102.729 80.03L-14.3204 -36.7061L-14.5581 -36.47L102.492 80.2661Z"
                fill="#19495E"></path>
            <path
                d="M102.729 80.03L102.967 79.7939L-14.0829 -36.9421L-14.3206 -36.706L102.729 80.03Z"
                fill="#19495E"></path>
            <path
                d="M102.967 79.7939L103.196 79.5578L-13.8451 -37.1782L-14.0828 -36.9421L102.967 79.7939Z"
                fill="#19495E"></path>
            <path
                d="M103.196 79.5579L103.434 79.3218L-13.616 -37.4143L-13.8452 -37.1782L103.196 79.5579Z"
                fill="#19495E"></path>
            <path
                d="M103.434 79.3217L103.646 79.1109L-13.4038 -37.6167L-13.616 -37.4143L103.434 79.3217Z"
                fill="#19495E"></path>
            <path
                d="M103.646 79.1108L103.85 78.9084L-13.2001 -37.8276L-13.4038 -37.6168L103.646 79.1108Z"
                fill="#19495F"></path>
            <path
                d="M103.85 78.9085L104.062 78.6977L-12.9878 -38.0383L-13.2 -37.8275L103.85 78.9085Z"
                fill="#194A5F"></path>
            <path
                d="M104.062 78.6977L104.266 78.4953L-12.7841 -38.2407L-12.9878 -38.0383L104.062 78.6977Z"
                fill="#194B60"></path>
            <path
                d="M104.266 78.4952L104.478 78.2844L-12.572 -38.4517L-12.7842 -38.2409L104.266 78.4952Z"
                fill="#1A4B60"></path>
            <path
                d="M104.478 78.2844L104.682 78.0736L-12.3683 -38.6541L-12.572 -38.4517L104.478 78.2844Z"
                fill="#1A4C61"></path>
            <path
                d="M104.682 78.0737L104.894 77.8713L-12.156 -38.8647L-12.3682 -38.6539L104.682 78.0737Z"
                fill="#1A4D62"></path>
            <path
                d="M104.894 77.8712L105.098 77.6604L-11.9523 -39.0757L-12.156 -38.8649L104.894 77.8712Z"
                fill="#1A4D63"></path>
            <path
                d="M105.097 77.6606L105.31 77.4582L-11.7402 -39.2778L-11.9524 -39.0755L105.097 77.6606Z"
                fill="#1A4E63"></path>
            <path
                d="M105.31 77.4581L105.514 77.2473L-11.5363 -39.4888L-11.74 -39.278L105.31 77.4581Z"
                fill="#1B4F64"></path>
            <path
                d="M105.513 77.2474L105.726 77.0366L-11.3242 -39.6995L-11.5364 -39.4887L105.513 77.2474Z"
                fill="#1B4F65"></path>
            <path
                d="M105.726 77.0366L105.929 76.8342L-11.1205 -39.9019L-11.3242 -39.6995L105.726 77.0366Z"
                fill="#1B5066"></path>
            <path
                d="M105.929 76.8341L106.142 76.6233L-10.9082 -40.1128L-11.1204 -39.902L105.929 76.8341Z"
                fill="#1B5167"></path>
            <path
                d="M106.142 76.6233L106.345 76.4125L-10.696 -40.3152L-10.9082 -40.1128L106.142 76.6233Z"
                fill="#1C5167"></path>
            <path
                d="M106.345 76.4126L106.558 76.2102L-10.4923 -40.5259L-10.696 -40.3151L106.345 76.4126Z"
                fill="#1C5268"></path>
            <path
                d="M106.557 76.2101L106.761 75.9993L-10.2802 -40.7368L-10.4924 -40.526L106.557 76.2101Z"
                fill="#1C5369"></path>
            <path
                d="M106.761 75.9992L106.974 75.7969L-10.0763 -40.9392L-10.28 -40.7368L106.761 75.9992Z"
                fill="#1C546A"></path>
            <path
                d="M106.973 75.797L107.177 75.5862L-9.86422 -41.1499L-10.0764 -40.9391L106.973 75.797Z"
                fill="#1D556B"></path>
            <path
                d="M107.177 75.5862L107.389 75.3754L-9.66053 -41.3523L-9.86426 -41.1499L107.177 75.5862Z"
                fill="#1D556C"></path>
            <path
                d="M107.389 75.3755L107.593 75.1731L-9.4482 -41.563L-9.6604 -41.3522L107.389 75.3755Z"
                fill="#1D566C"></path>
            <path
                d="M107.593 75.173L107.805 74.9622L-9.24454 -41.7739L-9.44824 -41.5631L107.593 75.173Z"
                fill="#1D576D"></path>
            <path
                d="M107.805 74.9621L108.009 74.7598L-9.03243 -41.9763L-9.24463 -41.7739L107.805 74.9621Z"
                fill="#1D586E"></path>
            <path
                d="M108.009 74.7599L108.221 74.5491L-8.82877 -42.187L-9.03247 -41.9762L108.009 74.7599Z"
                fill="#1E586F"></path>
            <path
                d="M108.221 74.549L108.425 74.3382L-8.61641 -42.3894L-8.82861 -42.187L108.221 74.549Z"
                fill="#1E5970"></path>
            <path
                d="M108.425 74.3381L108.637 74.1357L-8.41272 -42.6003L-8.61646 -42.3895L108.425 74.3381Z"
                fill="#1E5A71"></path>
            <path
                d="M108.637 74.1358L108.841 73.925L-8.20064 -42.811L-8.41284 -42.6002L108.637 74.1358Z"
                fill="#1E5B72"></path>
            <path
                d="M108.841 73.925L109.053 73.7226L-7.99698 -43.0134L-8.20068 -42.8111L108.841 73.925Z"
                fill="#1F5C73"></path>
            <path
                d="M109.053 73.7228L109.265 73.512L-7.78463 -43.2241L-7.99683 -43.0133L109.053 73.7228Z"
                fill="#1F5C73"></path>
            <path
                d="M109.265 73.5118L109.469 73.301L-7.58096 -43.4351L-7.78467 -43.2243L109.265 73.5118Z"
                fill="#1F5D74"></path>
            <path
                d="M109.469 73.301L109.681 73.0986L-7.36885 -43.6375L-7.58105 -43.4351L109.469 73.301Z"
                fill="#1F5E75"></path>
            <path
                d="M109.681 73.0987L109.885 72.8879L-7.16492 -43.8481L-7.36865 -43.6373L109.681 73.0987Z"
                fill="#205F76"></path>
            <path
                d="M-7.16504 -43.8482L-7.01226 -44H-6.90191L110.038 72.6264V72.7361L109.885 72.8878L-7.16504 -43.8482Z"
                fill="#206077"></path>
            <path d="M-6.48595 -44L110.038 72.2133V72.6264L-6.90186 -44H-6.48595Z" fill="#206178"></path>
            <path d="M-6.07018 -44L110.038 71.8001V72.2133L-6.48608 -44H-6.07018Z" fill="#206179"></path>
            <path d="M-5.65414 -44L110.038 71.3869V71.8001L-6.07007 -44H-5.65414Z" fill="#21627A"></path>
            <path d="M-5.23815 -44L110.038 70.9653V71.3869L-5.65405 -44H-5.23815Z" fill="#21637B"></path>
            <path d="M-4.82238 -44L110.038 70.5521V70.9653L-5.23828 -44H-4.82238Z" fill="#21647C"></path>
            <path d="M-4.40633 -44L110.038 70.1389V70.5521L-4.82227 -44H-4.40633Z" fill="#21657D"></path>
            <path d="M-3.99059 -44L110.038 69.7258V70.1389L-4.40649 -44H-3.99059Z" fill="#22667E"></path>
            <path d="M-3.57457 -44L110.038 69.3041V69.7258L-3.99048 -44H-3.57457Z" fill="#22677F"></path>
            <path d="M-3.15878 -44L110.037 68.891V69.3041L-3.57471 -44H-3.15878Z" fill="#22677F"></path>
            <path d="M-2.74279 -44L110.038 68.4778V68.891L-3.15869 -44H-2.74279Z" fill="#236880"></path>
            <path d="M-2.32677 -44L110.038 68.0646V68.4778L-2.74268 -44H-2.32677Z" fill="#236980"></path>
            <path d="M-1.911 -44L110.038 67.6514V68.0646L-2.3269 -44H-1.911Z" fill="#236A80"></path>
            <path d="M-1.49496 -44L110.038 67.2298V67.6514L-1.91089 -44H-1.49496Z" fill="#236B80"></path>
            <path d="M-1.07921 -44L110.038 66.8166V67.2298L-1.49512 -44H-1.07921Z" fill="#246C80"></path>
            <path d="M-0.663197 -44L110.038 66.4034V66.8166L-1.0791 -44H-0.663197Z" fill="#246D80"></path>
            <path d="M-0.238929 -44L110.037 65.9903V66.4034L-0.66333 -44H-0.238929Z" fill="#246E80"></path>
            <path d="M0.177161 -44L110.038 65.5687V65.9903L-0.23877 -44H0.177161Z" fill="#246E80"></path>
            <path d="M0.592907 -44L110.037 65.1555V65.5687L0.177002 -44H0.592907Z" fill="#256F81"></path>
            <path d="M1.00892 -44L110.038 64.7423V65.1555L0.593018 -44H1.00892Z" fill="#257082"></path>
            <path d="M1.42496 -44L110.038 64.3291V64.7423L1.00903 -44H1.42496Z" fill="#257183"></path>
            <path d="M1.84071 -44L110.038 63.9159V64.3291L1.4248 -44H1.84071Z" fill="#267284"></path>
            <path d="M2.25673 -44L110.038 63.4943V63.9159L1.84082 -44H2.25673Z" fill="#267385"></path>
            <path d="M2.67252 -44L110.038 63.0811V63.4943L2.25659 -44H2.67252Z" fill="#267486"></path>
            <path d="M3.08851 -44L110.038 62.668V63.0811L2.67261 -44H3.08851Z" fill="#267587"></path>
            <path d="M3.50428 -44L110.037 62.2548V62.668L3.08838 -44H3.50428Z" fill="#277688"></path>
            <path d="M3.92033 -44L110.038 61.8332V62.2548L3.50439 -44H3.92033Z" fill="#277789"></path>
            <path d="M4.33632 -44L110.038 61.42V61.8332L3.92041 -44H4.33632Z" fill="#27778A"></path>
            <path d="M4.75209 -44L110.038 61.0068V61.42L4.33618 -44H4.75209Z" fill="#27788B"></path>
            <path d="M5.16813 -44L110.038 60.5936V61.0068L4.7522 -44H5.16813Z" fill="#28798C"></path>
            <path d="M5.58387 -44L110.037 60.1805V60.5936L5.16797 -44H5.58387Z" fill="#287A8D"></path>
            <path d="M5.99989 -44L110.038 59.7588V60.1805L5.58398 -44H5.99989Z" fill="#287B8E"></path>
            <path d="M6.41593 -44L110.038 59.3457V59.7588L6 -44H6.41593Z" fill="#297C8F"></path>
            <path d="M6.83168 -44L110.038 58.9325V59.3457L6.41577 -44H6.83168Z" fill="#297D90"></path>
            <path d="M7.24769 -44L110.038 58.5193V58.9325L6.83179 -44H7.24769Z" fill="#297E91"></path>
            <path d="M7.66349 -44L110.038 58.0977V58.5193L7.24756 -44H7.66349Z" fill="#297F92"></path>
            <path d="M8.07948 -44L110.038 57.6845V58.0977L7.66357 -44H8.07948Z" fill="#2A8093"></path>
            <path d="M8.49525 -44L110.037 57.2713V57.6845L8.07935 -44H8.49525Z" fill="#2A8094"></path>
            <path d="M8.91127 -44L110.038 56.8581V57.2713L8.49536 -44H8.91127Z" fill="#2A8095"></path>
            <path d="M9.32731 -44L110.038 56.445V56.8581L8.91138 -44H9.32731Z" fill="#2B8096"></path>
            <path d="M9.74305 -44L110.038 56.0234V56.445L9.32715 -44H9.74305Z" fill="#2B8097"></path>
            <path d="M10.1591 -44L110.038 55.6102V56.0234L9.74316 -44H10.1591Z" fill="#2B8098"></path>
            <path d="M10.5749 -44L110.038 55.197V55.6102L10.1589 -44H10.5749Z" fill="#2B8099"></path>
            <path d="M10.9909 -44L110.038 54.7838V55.197L10.575 -44H10.9909Z" fill="#2C809A"></path>
            <path d="M11.4069 -44L110.038 54.3706V54.7838L10.991 -44H11.4069Z" fill="#2C809B"></path>
            <path d="M11.8227 -44L110.038 53.949V54.3706L11.4067 -44H11.8227Z" fill="#2C819C"></path>
            <path d="M12.2387 -44L110.038 53.5358V53.949L11.8228 -44H12.2387Z" fill="#2D829D"></path>
            <path d="M12.6544 -44L110.038 53.1227V53.5358L12.2385 -44H12.6544Z" fill="#2D839F"></path>
            <path d="M13.0705 -44L110.038 52.7095V53.1227L12.6545 -44H13.0705Z" fill="#2D84A0"></path>
            <path d="M13.4862 -44L110.037 52.2879V52.7095L13.0703 -44H13.4862Z" fill="#2D85A1"></path>
            <path d="M13.9022 -44L110.038 51.8747V52.2879L13.4863 -44H13.9022Z" fill="#2E86A2"></path>
            <path d="M14.3183 -44L110.038 51.4615V51.8747L13.9023 -44H14.3183Z" fill="#2E87A3"></path>
            <path d="M14.7425 -44L110.038 51.0483V51.4615L14.3181 -44H14.7425Z" fill="#2E88A4"></path>
            <path d="M15.1586 -44L110.038 50.6351V51.0483L14.7427 -44H15.1586Z" fill="#2F89A5"></path>
            <path d="M15.5744 -44L110.038 50.2135V50.6352L15.1584 -44H15.5744Z" fill="#2F8AA6"></path>
            <path d="M15.9904 -44L110.038 49.8004V50.2135L15.5745 -44H15.9904Z" fill="#2F8BA7"></path>
            <path d="M16.4061 -44L110.038 49.3872V49.8003L15.9902 -44H16.4061Z" fill="#2F8CA8"></path>
            <path d="M16.8222 -44L110.038 48.974V49.3872L16.4062 -44H16.8222Z" fill="#308DA9"></path>
            <path d="M17.238 -44L110.038 48.5524V48.974L16.822 -44H17.238Z" fill="#308EAA"></path>
            <path d="M17.6539 -44L110.038 48.1392V48.5524L17.238 -44H17.6539Z" fill="#308FAB"></path>
            <path d="M18.07 -44L110.038 47.726V48.1392L17.6541 -44H18.07Z" fill="#3190AC"></path>
            <path d="M18.4858 -44L110.038 47.3128V47.726L18.0698 -44H18.4858Z" fill="#3190AD"></path>
            <path d="M18.9017 -44L110.038 46.8997V47.3128L18.4858 -44H18.9017Z" fill="#3191AE"></path>
            <path d="M19.3175 -44L110.038 46.478V46.8997L18.9016 -44H19.3175Z" fill="#3292AF"></path>
            <path d="M19.7335 -44L110.038 46.0649V46.4781L19.3176 -44H19.7335Z" fill="#3293B1"></path>
            <path d="M20.1493 -44L110.037 45.6517V46.0649L19.7334 -44H20.1493Z" fill="#3294B2"></path>
            <path d="M20.5653 -44L110.038 45.2385V45.6517L20.1494 -44H20.5653Z" fill="#3295B3"></path>
            <path d="M20.9813 -44L110.038 44.8169V45.2385L20.5654 -44H20.9813Z" fill="#3396B4"></path>
            <path d="M21.3971 -44L110.038 44.4037V44.8169L20.9812 -44H21.3971Z" fill="#3397B5"></path>
            <path d="M21.8131 -44L110.038 43.9905V44.4037L21.3972 -44H21.8131Z" fill="#3398B6"></path>
            <path d="M22.2289 -44L110.038 43.5773V43.9905L21.813 -44H22.2289Z" fill="#3499B7"></path>
            <path d="M22.6449 -44L110.038 43.1642V43.5774L22.229 -44H22.6449Z" fill="#349AB8"></path>
            <path d="M23.0609 -44L110.038 42.7426V43.1642L22.645 -44H23.0609Z" fill="#349BB9"></path>
            <path d="M23.4767 -44L110.038 42.3294V42.7426L23.0608 -44H23.4767Z" fill="#359CBA"></path>
            <path d="M23.8927 -44L110.038 41.9162V42.3294L23.4768 -44H23.8927Z" fill="#359DBB"></path>
            <path d="M24.3085 -44L110.038 41.503V41.9162L23.8926 -44H24.3085Z" fill="#359EBC"></path>
            <path d="M24.7245 -44L110.038 41.0814V41.503L24.3086 -44H24.7245Z" fill="#359FBD"></path>
            <path d="M25.1403 -44L110.037 40.6682V41.0814L24.7244 -44H25.1403Z" fill="#36A0BF"></path>
            <path d="M25.5563 -44L110.038 40.255V40.6682L25.1404 -44H25.5563Z" fill="#36A1C0"></path>
            <path d="M25.9723 -44L110.038 39.8419V40.255L25.5564 -44H25.9723Z" fill="#36A2C1"></path>
            <path d="M26.3881 -44L110.038 39.4287V39.8419L25.9722 -44H26.3881Z" fill="#37A3C2"></path>
            <path d="M26.8041 -44L110.038 39.0071V39.4287L26.3882 -44H26.8041Z" fill="#37A4C3"></path>
            <path d="M27.2199 -44L110.038 38.5939V39.0071L26.804 -44H27.2199Z" fill="#37A5C4"></path>
            <path d="M27.6359 -44L110.038 38.1807V38.5939L27.22 -44H27.6359Z" fill="#38A6C5"></path>
            <path d="M28.0519 -44L110.038 37.7675V38.1807L27.636 -44H28.0519Z" fill="#38A7C6"></path>
            <path d="M28.4677 -44L110.038 37.3459V37.7675L28.0518 -44H28.4677Z" fill="#38A8C7"></path>
            <path d="M28.8837 -44L110.038 36.9327V37.3459L28.4678 -44H28.8837Z" fill="#38A9C8"></path>
            <path d="M29.2994 -44L110.038 36.5196V36.9327L28.8835 -44H29.2994Z" fill="#39AACA"></path>
            <path d="M29.7155 -44L110.038 36.1064V36.5196L29.2996 -44H29.7155Z" fill="#39ABCB"></path>
            <path d="M30.1397 -44L110.038 35.6932V36.1064L29.7153 -44H30.1397Z" fill="#39ACCC"></path>
            <path d="M30.5558 -44L110.038 35.2716V35.6932L30.1399 -44H30.5558Z" fill="#3AADCD"></path>
            <path d="M30.9716 -44L110.038 34.8584V35.2716L30.5557 -44H30.9716Z" fill="#3AAECE"></path>
            <path d="M31.3876 -44L110.038 34.4452V34.8584L30.9717 -44H31.3876Z" fill="#3AAFCF"></path>
            <path d="M31.8034 -44L110.037 34.032V34.4452L31.3875 -44H31.8034Z" fill="#3BB0D0"></path>
            <path d="M32.2194 -44L110.038 33.6189V34.032L31.8035 -44H32.2194Z" fill="#3BB1D1"></path>
            <path d="M32.6354 -44L110.038 33.1973V33.6189L32.2195 -44H32.6354Z" fill="#3BB2D2"></path>
            <path d="M33.0512 -44L110.038 32.7841V33.1973L32.6353 -44H33.0512Z" fill="#3CB3D3"></path>
            <path d="M33.4672 -44L110.038 32.3709V32.7841L33.0513 -44H33.4672Z" fill="#3CB4D5"></path>
            <path d="M33.8829 -44L110.037 31.9577V32.3709L33.467 -44H33.8829Z" fill="#3CB5D6"></path>
            <path d="M34.299 -44L110.038 31.5361V31.9577L33.8831 -44H34.299Z" fill="#3CB6D7"></path>
            <path d="M34.7148 -44L110.037 31.1229V31.5361L34.2988 -44H34.7148Z" fill="#3DB7D8"></path>
            <path d="M35.1307 -44L110.038 30.7097V31.1229L34.7148 -44H35.1307Z" fill="#3DB8D9"></path>
            <path d="M35.5468 -44L110.038 30.2966V30.7097L35.1309 -44H35.5468Z" fill="#3DB9DA"></path>
            <path d="M35.9626 -44L110.038 29.8834V30.2966L35.5466 -44H35.9626Z" fill="#3EBADB"></path>
            <path d="M36.3786 -44L110.038 29.4618V29.8834L35.9626 -44H36.3786Z" fill="#3EBBDC"></path>
            <path d="M36.7943 -44L110.037 29.0486V29.4618L36.3784 -44H36.7943Z" fill="#3EBCDE"></path>
            <path d="M37.2104 -44L110.038 28.6354V29.0486L36.7944 -44H37.2104Z" fill="#3FBDDF"></path>
            <path d="M37.6264 -44L110.038 28.2222V28.6354L37.2104 -44H37.6264Z" fill="#3FBEE0"></path>
            <path d="M38.0421 -44L110.038 27.8006V28.2222L37.6262 -44H38.0421Z" fill="#3FBFE1"></path>
            <path d="M38.4582 -44L110.038 27.3874V27.8006L38.0422 -44H38.4582Z" fill="#40C1E2"></path>
            <path d="M38.8739 -44L110.037 26.9742V27.3874L38.458 -44H38.8739Z" fill="#40C2E3"></path>
            <path d="M39.2899 -44L110.038 26.5611V26.9743L38.874 -44H39.2899Z" fill="#40C3E4"></path>
            <path d="M39.7057 -44L110.037 26.1479V26.5611L39.2898 -44H39.7057Z" fill="#41C4E5"></path>
            <path d="M40.1217 -44L110.038 25.7263V26.1479L39.7058 -44H40.1217Z" fill="#41C5E7"></path>
            <path d="M40.5377 -44L110.038 25.3131V25.7263L40.1218 -44H40.5377Z" fill="#41C6E8"></path>
            <path d="M40.9535 -44L110.038 24.8999V25.3131L40.5376 -44H40.9535Z" fill="#41C7E9"></path>
            <path d="M41.3695 -44L110.038 24.4867V24.8999L40.9536 -44H41.3695Z" fill="#42C8EA"></path>
            <path d="M41.7853 -44L110.038 24.0651V24.4867L41.3694 -44H41.7853Z" fill="#42C9EB"></path>
            <path d="M42.2013 -44L110.038 23.652V24.0651L41.7854 -44H42.2013Z" fill="#42CAEC"></path>
            <path d="M42.6173 -44L110.038 23.2388V23.6519L42.2014 -44H42.6173Z" fill="#43CBED"></path>
            <path d="M43.0331 -44L110.038 22.8256V23.2388L42.6172 -44H43.0331Z" fill="#43CCEF"></path>
            <path d="M43.4491 -44L110.038 22.4124V22.8256L43.0332 -44H43.4491Z" fill="#43CDF0"></path>
            <path d="M43.8649 -44L110.038 21.9908V22.4124L43.449 -44H43.8649Z" fill="#44CEF1"></path>
            <path d="M44.2809 -44L110.038 21.5776V21.9908L43.865 -44H44.2809Z" fill="#44CFF2"></path>
            <path d="M110.038 21.5776L44.281 -44H110.038V21.5776Z" fill="#44CFF2"></path>
        </g>
    </g>
</svg>